<svg xmlns="http://www.w3.org/2000/svg" version="1.1" xmlns:xlink="http://www.w3.org/1999/xlink" xmlns:svgjs="http://svgjs.dev/svgjs" width="24" height="24"><svg xmlns="http://www.w3.org/2000/svg" version="1.1" viewBox="0 0 24 24">
  <defs>
    <style>
      .cls-1 {
        fill: #26997b;
      }
    </style>
  </defs>
  <!-- Generator: Adobe Illustrator 28.6.0, SVG Export Plug-In . SVG Version: 1.2.0 Build 709)  -->
  <g>
    <g id="SvgjsG1122">
      <path class="cls-1" d="M22.8,22.4v.4h-6.1l-1.3-1.3-4.3-11.9h-.8c-.3,0-.4,0-.5.6l-1.8,8.3H2.4l-1.6-1.7L2.9,6.7c.6-2.8,2.6-4.4,5.5-4.4h1.7c2,0,3.5.6,4.5,1.7l.4.4V1h6.3l1.5,1.5v5.2h-5.3c.2.4.3.8.5,1.2,0,0,4.9,13.7,4.9,13.7ZM20.2,20.5l-4.6-12.7c-1.1-2.9-2.6-4.5-5.6-4.5h-1.7c-2.5,0-4,1.5-4.5,3.6l-2,9.1h3.9l1.6-7.4c.2-.8.6-1.3,1.5-1.3h1c1.1,0,1.7.8,2.1,2l4,11.3h4.1,0ZM17.7,5.4V1.8h-1.9v3.6h1.9ZM20.6,5.4V1.8h-1.9v3.6h1.9Z"></path>
    </g>
  </g>
</svg><style>@media (prefers-color-scheme: light) { :root { filter: none; } }
@media (prefers-color-scheme: dark) { :root { filter: none; } }
</style></svg>